<svg viewBox="0 0 360 240" fill="none" xmlns="http://www.w3.org/2000/svg"><g clip-path="url(#welcome_screen_main_page_svg__a)"><path d="M85.63 31.43c-.96.01-1.92 0-2.88-.05-7.93-.36-56.58-1.16-56.58 40.67 0 40.55-3.13 96.84.92 108.88 4.39 13.04 13.12 28.03 60.36 27.32 47.24-.71 188.23 3.88 210.39-.96 22.16-4.84 33.76-17.19 35.85-43.99 2.09-26.8 1.18-71.39 1.18-81.81 0-7.75 1.43-52.56-52.49-51-57.39 1.67-180.3.79-196.75.94Z" fill="#008BAB"></path><path d="M94.49 208.19c16.68-.08 41 .27 67.13.63l.18-22.45s-36.81 6.68-37.3 7c-.28.19-16.8 8.32-30.01 14.82ZM307 204.62c-.53-1.09-1.08-2.05-1.62-2.7-2.52-3.01-24.02-27.28-24.02-27.28l-17.43-6.6-53.91 4.64-6.02 36.66c9.99.1 19.8.17 29.11.19 8.33-7.17 16.49-14.22 16.49-14.22l1.79.08 14.1 13.93c15.48-.29 27.18-.9 32.37-2.04 3.27-.7 6.32-1.59 9.14-2.66Z" fill="#023138"></path><path d="M253.339 173.01c-.33.33-24.43 8.55-42.75 4.48s6.35-11.97 6.35-11.97l36.4 7.49Z" fill="#00520A"></path><path d="M73.96 167.84s-3.11-6.96-4.7-7.88c-1.59-.92-2.14.06-1.95.79.18.73 1.83 4.64 1.83 4.64s-3.66-6.6-5.13-7.27c-1.47-.67-2.14.79-2.14.79l2.63 6.66s-3.24-5.68-4.58-5.68c-1.34 0-1.83.31-1.95.73-.12.42 2.93 7.21 3.66 8.06.73.86 11.42 4.09 11.42 4.09l.91-4.93Z" fill="#000"></path><path d="M208.551 171.54s29.8 13.19 64.66 1.14c0 0 17.43-17.59 22.48-30.29 0 0 8.79 15.96 14.01 17.43 5.21 1.47 12.22.98 13.52-4.72 1.3-5.7-.33-30.94-.33-30.94l-13.03 2.44s-2.44-7.33-13.36-13.03c-10.91-5.7-35.18-10.26-43-6.35s-34.69 26.87-34.69 26.87l-10.26 37.45Z" fill="#00660C"></path><path d="M292.261 174.48s.65 1.38 0 1.71c-.65.33-19.3 3.5-35.91 3.42 0 0-9.12 1.38-11.07 1.3-1.95-.08-9.77-3.99-8.47-5.54 1.3-1.55 35.99-6.03 41.37-5.54 5.37.49 14.08 4.65 14.08 4.65Z" fill="#F09A00"></path><path d="m86.97 168.94-4.76.06s-2.32-3.91-7.94-2.2c0 0-3.24-3.3-5.25-2.93-2.01.37-.98 2.26-.55 2.87.43.61 3.11 3.36 3.11 3.36s-2.5.49-4.76-.37-9.28-4.89-11.54-4.58c-2.26.31-2.08 1.47-1.53 1.89.55.43 13.99 8.55 15.51 9.83 1.52 1.28 8.43 2.63 14.41 1.47 5.99-1.16 7.08-.67 7.08-.67l-3.78-8.73Z" fill="#F8A9AF"></path><path d="M102.361 129.24s-6.96 37.26 8.67 60.46c15.63 23.2 49.96-11.48 49.96-11.48s-4.03-36.77-7.33-39.09c-3.3-2.32-15.15-5.86-15.15-5.86l-36.15-4.03Z" fill="#007A0E"></path><path d="M121.951 139.99s1.13 6.29 3.06 6.77l-2.74 5.64s-2.9-4.68-3.39-8.87l3.07-3.54Z" fill="#A5A5A5"></path><path d="M111.38 145.94c2.54 17.01 9.24 33.31 19.39 47.19.79 1.08 2.61.03 1.81-1.06a105.433 105.433 0 0 1-19.18-46.68c-.19-1.34-2.21-.78-2.02.55Z" fill="#00660C"></path><path d="M107.08 182.55a49.11 49.11 0 0 0 3.41 6.3l10.93-13.88 26.71 4.07 1.14-7.49-29.97-1.79-12.22 12.79Z" fill="#00660C"></path><path d="M296.61 97.23c-1.22-6.02-1.02-9.97-.74-13.47l6.17.59c-.07 9.63-3.13 13-5.43 12.88Z" fill="#023138"></path><path d="M299.801 78.91s-1.15 21.99.57 32.37c2.32 14.05 1.22 27-10.87 35.06 0 0-3.54 2.2-3.42-5.01.14-8.31-3.79-26.38-3.91-31.88-.12-5.5 10.13-32.25 10.13-32.25l7.5 1.71Z" fill="#000"></path><path d="M323.21 155.09c.49-2.14.56-7.03.47-12.3l-16.23 6.05.77-25.3c-.93-1.39-2.33-3.12-4.37-4.95-.43 3.94-2.12 16.75-6.53 26.61 2.79 4.65 8.55 13.54 12.38 14.62 5.2 1.46 12.21.98 13.51-4.73Z" fill="#000"></path><path d="M67.24 101.94s-4.34-10.81-7.02-12.22c-2.68-1.41-4.58-.06-4.58-.06s-2.81-2.02-4.4-1.22c-1.59.79-2.26.86-2.26.86s-7.15-1.65-8.18-1.77c-1.04-.12-1.65 1.59-.24 2.57 1.4.98 4.82 2.26 4.82 2.26s2.87 1.95 3.97 5.37 2.57 7.15 9.34 7.08l2.38 1.77 6.17-4.64Z" fill="#F8A9AF"></path><path d="M94.79 125.33s-13.38.06-14.41-.24c-1.04-.31-13.8-24.61-13.8-24.61l-9.71 5.74s6.9 26.45 10.99 33.47 22.41 5.92 26.08 5.01c3.67-.91.85-19.37.85-19.37Z" fill="#00660C"></path><path d="M93.22 125.34c-3.56.01-12.03-.01-12.85-.25-.33-.1-1.88-2.68-3.82-6.13l-12.12 12.61c1.21 3.43 2.4 6.37 3.42 8.12 2.1 3.6 7.92 5.06 13.6 5.51-.86-8.01 7.84-16.48 11.77-19.86Z" fill="#000"></path><path d="M141.69 138.52s-10.32-5.07-15.82 5.62c-5.5 10.69-11.6 22.96-11.79 23.09-.18.12-26.51 1.34-27.79 1.71 0 0-.18 13.68.12 14.78.31 1.1 27.79 1.34 35.42-.37 7.63-1.71 22.17-23.7 24.31-28.95 2.15-5.25 3.43-12.64-4.45-15.88Z" fill="#007A0E"></path><path d="M147.22 143.85c-9.33 6.11-20.93 7.32-25.05 7.56-4.22 8.31-7.93 15.72-8.07 15.82-.05.04-2.27.16-5.43.33l7.76 16.5c2.23-.18 4.12-.42 5.43-.71 7.63-1.71 22.17-23.7 24.31-28.95 1.28-3.2 2.26-7.19 1.05-10.55Z" fill="#000"></path><path d="m213.361 165.52-67.51.24s-7.03 25.82-7.05 42.75c25.16.32 54.06.79 80.42.96l-5.86-43.95Z" fill="#004656"></path><path d="M164.75 187.18c2.96 2.03 6.11 3.72 9.41 5.11.52.22 1.16-.24 1.29-.73.17-.61-.21-1.07-.73-1.29-3.13-1.32-6.11-2.98-8.91-4.9-.47-.32-1.16-.09-1.44.38-.3.51-.09 1.11.38 1.43Z" fill="#000"></path><path d="M171.609 190.93c.5 5.2.73 10.41.71 15.63 0 1.35 2.1 1.35 2.1 0 .02-5.22-.22-10.43-.71-15.63-.13-1.33-2.23-1.34-2.1 0ZM260.889 189.58c-3.75 1.49-7.5 2.98-11.26 4.47-.53.21-.9.7-.73 1.29.14.5.76.94 1.29.73 3.75-1.49 7.5-2.98 11.26-4.47.53-.21.9-.7.73-1.29-.13-.5-.76-.94-1.29-.73Z" fill="#000"></path><path d="M248.959 194.49c-4.71 3.87-9.38 7.79-14.01 11.75-1.03.88.46 2.36 1.48 1.48 4.63-3.97 9.3-7.88 14.01-11.75.44-.36.37-1.11 0-1.48-.43-.44-1.05-.36-1.48 0Z" fill="#000"></path><path d="M94 122.89c2.19-5.89 2.61-9.92 2.88-13.51l-6.34-.38c-1.45 9.75 1.11 13.64 3.46 13.89Z" fill="#023138"></path><path d="M95.89 101.51s-7.82 31.88-8.43 44.1c-.61 12.22 6.96 19.18 11.85 19.3 4.89.12 6.11-4.89 6.35-9.65.24-4.76 3.18-18.57 3.18-18.57l-12.95-35.18Z" fill="#000"></path><path d="M96.19 107.25s-1.83 25.53 1.47 31.09c3.3 5.56 10.75 4.58 14.35 4.28l-.18 2.14s10.5-2.38 12.15-11.12c1.65-8.74-.43-26.45-.43-26.45l-27.36.06Z" fill="#F8A9AF"></path><path d="M105.721 120.22c-.5.86-1.01 1.72-1.5 2.59-.48.88-1.041 1.78-1.371 2.73-.4 1.16-.069 2.51 1.161 2.98 1.12.43 2.4-.3 2.64-1.47.09-.44-.131-.89-.581-1.01-.41-.11-.93.14-1.01.58-.04.21-.129.35-.27.38a.352.352 0 0 1-.41-.2c-.27-.57.36-1.45.61-1.92.68-1.3 1.42-2.56 2.15-3.82.54-.92-.879-1.76-1.419-.84Z" fill="#000"></path><path d="M95.76 126.61s1.72.24 4.21-.99c1.94-.96 3.83-1.41 5.92-.87 3.55.92 6.12 1.54 8.79 1.26 2.67-.28 6.65-5.17 7.49-4.36 1.85 1.79-4.22 4.73-4.92 6.88-.7 2.15.19 4.96 2.53 3.74 2.34-1.22 4.87-5.52 4.87-5.52s.8.51-.14 2.48c-.94 1.97-5.19 9.31-11.93 11.65-6.74 2.34-13.05 2.39-15.86-3.7-.01.02-1.42-4.16-.96-10.57Z" fill="#EE2737"></path><path d="M98.9 132.69c1.559 2.12 4.079 3.46 6.759 3.3 2.75-.17 5.12-1.74 6.72-3.93.34-.46.08-1.17-.38-1.44-.53-.31-1.1-.08-1.44.38-1.14 1.55-2.96 2.76-4.91 2.89-1.89.12-3.81-.72-4.95-2.26-.34-.46-.91-.68-1.44-.38-.43.27-.69.98-.36 1.44Z" fill="#B6202D"></path><path d="M108.161 142.74s-2.38-.43-2.08 3.91c0 0 .06 1.47 3.42 1.89 3.36.43 13.13-1.59 14.41-12.7h-.73c.01 0-5 7.69-15.02 6.9Z" fill="#00660C"></path><path d="M298.62 81.97s-1.949 22.8-4.799 27.77c-2.85 4.97-7.9 5.86-16.04 4.23l-3.421 2.12s-4.89-2.52-6.84-9.69c-1.95-7.17-1.06-19.14-1.06-19.14l2.44-11.16 29.72 5.87Z" fill="#F8A9AF"></path><path d="M285.21 94.34c.34 1.44.67 2.88.94 4.33.1.55.38 1.45.04 1.9-.27.37-.68.07-.64-.36.04-.44-.41-.82-.82-.82-.48 0-.78.38-.83.82-.12 1.21.96 2.27 2.16 2.15 1.3-.13 1.95-1.32 1.91-2.53-.03-1-.3-2.03-.51-3.01-.2-.98-.44-1.95-.67-2.93-.23-1.02-1.82-.58-1.58.45Z" fill="#000"></path><path d="M296.299 100.78s-2.15-.57-4.55-2.2c-1.87-1.28-3.77-2.03-6.01-1.78-3.81.43-6.57.7-9.29.02-2.72-.68-6.13-6.34-7.12-5.62-2.18 1.58 3.67 5.52 4.09 7.86.41 2.33-.92 5.11-3.17 3.51-2.25-1.6-4.23-6.44-4.23-6.44s-.9.42-.22 2.59 4.01 10.41 10.65 13.83c6.64 3.42 13.18 4.39 16.98-1.5 0 0 2.41-3.56 2.87-10.27Z" fill="#DF1995"></path><path d="M291.26 104.49c-1.23 1.56-3.14 2.54-5.15 2.25-2-.29-3.65-1.71-4.67-3.39-.7-1.15-2.52-.1-1.81 1.06 1.36 2.24 3.56 4.03 6.21 4.4 2.62.36 5.28-.76 6.92-2.83.35-.44.43-1.05 0-1.48-.38-.38-1.15-.46-1.5-.01Z" fill="#B21477"></path><path d="M269.651 108.9s6.29 6.05 14.47 5.86c0 0 2.87 4.76-.79 7.02s-13.44-2.38-16.49-9.04c-3.06-6.65 2.81-3.84 2.81-3.84Z" fill="#00520A"></path><path d="M278.99 128.22s3.09-9.2 7.17-10.1c0 0 3.01 4.48.9 13.68s-8.07-3.58-8.07-3.58Z" fill="#00AA13"></path><path d="M281.84 128.55s.52-2.85 1.74-3.42c1.22-.57-.26-1.47 1.22-1.79 1.48-.33.61-1.55 1.92-2.2 1.31-.65.09-1.47 1.39-1.71 1.31-.24 1.13-1.3 2.18-1.63 1.05-.33.78-1.22 1.66-.9.87.33.61.73.87 1.55.26.82.78 1.87.61 2.69-.17.81.87 1.71.78 2.93-.09 1.22.17 1.63-.26 2.44-.44.81.78 1.47.09 2.28-.7.81-.44 2.2-1.05 2.44-.61.24-9.41.41-9.41.41l-1.74-3.09Z" fill="#FFD51C"></path><path d="M290.79 124.2c-.56.06-1.14.12-1.64.42-.55.33-.91.86-.96 1.5-.02.27.03.55.09.82.03.11.05.23.08.34.04.15 0-.12 0-.02 0 .06.01.12.01.17 0 .16-.02-.01.01-.04-.02.02-.03.11-.04.14-.03.16.08-.15.01-.01-.02.04-.05.09-.07.13-.08.14.13-.12.01-.01-.02.02-.11.09-.11.1 0-.03.17-.11.03-.03-.05.03-.23.11 0 .02-.21.08-.38.18-.49.38-.1.18-.15.44-.08.64.12.39.59.75 1.01.58.51-.2.95-.54 1.17-1.05.12-.28.2-.55.2-.86 0-.28-.06-.56-.13-.82-.02-.1-.03-.22-.06-.31.06.17.01.08.01-.01v-.06c.01-.07 0-.08 0 0-.01.07-.01.07.01 0s.02-.06-.01 0c-.03.07-.03.07 0 .01.01-.01.02-.03.02-.04.02-.03.04-.06.06-.08-.02.03-.04.06-.07.09.02-.01.09-.09.11-.11.11-.11-.15.08 0 .01.04-.02.07-.04.11-.06.16-.09-.08.02 0-.01.05-.01.1-.03.15-.05.04-.01.36-.06.37-.08-.03 0-.06.01-.1.01.04-.01.08-.01.12-.01.06-.01.12-.01.19-.02.22-.02.42-.08.58-.24.14-.14.25-.38.24-.58-.02-.44-.37-.9-.83-.86Z" fill="#FFB31C"></path><path d="M289.01 129.12s4.4-4.07 6.11-3.42c0 0 .41 4.32-1.47 6.27-1.87 1.95-4.64-2.85-4.64-2.85Z" fill="#00CC18"></path><path d="M268.729 121.79s.57-5.86 3.66-4.72c3.09 1.14-3.09 6.43-3.09 6.43s4.15-4.48 7-3.26c2.85 1.22-.41 3.66-5.54 3.99-5.13.33-2.12-2.12-2.12-2.12l.09-.32Z" fill="#04CA17"></path><path d="M268.239 86.98s5.37 18.44-.98 29.93c-6.35 11.49-25.65-4.03-25.65-4.03s12.46-9.53 15.15-22.6c2.69-13.08 11.48-3.3 11.48-3.3Z" fill="#000"></path><path d="M249.81 119.15s-1.32-7.48 2.45-8.8c3.77-1.32.86 4.11-2.45 8.8Z" fill="#04CA17"></path><path d="M249.94 118.89s-.33-6.42-2.12-6.55c-1.79-.13-2.65 1.52-1.32 3.31 1.33 1.78 3.44 3.24 3.44 3.24Z" fill="#04CA17"></path><path d="M254.709 132.92s2.51-14.56-2.12-15.09c-4.63-.53-6.22 2.78-6.22 6.22s1.46 11.52 1.46 11.52l6.88-2.65Z" fill="#F07600"></path><path d="M259.811 120.24s.24 1.95-1.02 3.34c-1.26 1.38-5.05 4.32-4.15 8.02.9 3.71 19.87-2.77 19.87-2.77s1.63-3.09-2.93-5.09c-4.56-2-4.85-5.29-4.85-5.29l-6.92 1.79Z" fill="#02ACD4"></path><path d="m238.68 133.03 36.03-6.96s.61-.37 1.59-.24c.98.12-1.1 45.81-1.71 46.91-.61 1.1-36.97 5.01-36.97 5.01s-2.12-37.03 1.06-44.72Z" fill="#FFE985"></path><path d="m242.749 159.98-10.5-14.17-12.22 5.38-.49 3.5 13.93 18.48 8.63-4.56.65-8.63Z" fill="#007A0E"></path><path d="M245.44 164.13s.81.81 2.28.65c2.27-.25 12.54-1.47 14.09-1.22 1.55.24 2.12 2.28.57 3.34-1.55 1.06-6.92 2.36-6.92 2.36l8.88 4.48s4.32-.33 5.21-.08c.9.24-.33 1.95-2.36 2.85l-2.04.9s.16 2.04-2.77 2.44l-2.36-.16s-.98 1.55-3.5 1.38c-2.52-.16-5.7.33-7.49-.33-1.79-.65-4.64-.73-9.93-7.82l-2.77-3.75 7-7.41 2.11 2.37Z" fill="#F8A9AF"></path><path d="M254.379 180.15c1.45.05 2.89.13 4.34.23.43.03.84-.4.82-.82-.02-.47-.36-.79-.82-.83-1.44-.1-2.89-.18-4.34-.23-.43-.02-.84.39-.82.82.01.47.35.81.82.83Z" fill="#000"></path><path d="M199.81 177.89c2.23 4.52 5.74 8.35 10.01 11 1.15.72 2.21-1.1 1.06-1.81a25.095 25.095 0 0 1-9.26-10.25c-.6-1.21-2.41-.15-1.81 1.06Z" fill="#fff"></path><path d="m256.82 177.85 6.35.54c.44.04.83-.41.83-.82 0-.48-.38-.79-.83-.82l-6.35-.54c-.44-.04-.82.41-.82.82 0 .47.38.78.82.82Z" fill="#000"></path><path d="M150.729 175.4a21.07 21.07 0 0 1-2.77 3.39c-1.1 1.1-2.15 1.95-3.39 2.78-.46.3-.7.94-.38 1.44.29.46.95.7 1.44.38 2.75-1.82 5.09-4.17 6.91-6.92.3-.46.11-1.18-.38-1.44-.52-.28-1.11-.12-1.43.37ZM316.46 172.44l.57 1.93c.41 1.4 1.5 2.49 2.9 2.9l1.93.57c.58.17.58.99 0 1.17l-1.93.57c-1.4.41-2.49 1.5-2.9 2.9l-.57 1.93c-.17.58-.99.58-1.17 0l-.57-1.93c-.41-1.4-1.5-2.49-2.9-2.9l-1.92-.58c-.58-.17-.58-.99 0-1.17l1.93-.57c1.4-.41 2.49-1.5 2.9-2.9l.57-1.93c.16-.57.99-.57 1.16.01Z" fill="#fff"></path><path d="M262.15 173.43c.81.5 1.69.85 2.5 1.35.37.23.92.09 1.13-.3.21-.4.1-.89-.3-1.13-.81-.5-1.69-.85-2.5-1.35-.37-.23-.92-.09-1.13.3-.21.41-.09.89.3 1.13Z" fill="#000"></path><path d="m42.91 172.14.87 2.99a6.617 6.617 0 0 0 4.49 4.49l2.99.87c.9.26.9 1.54 0 1.8l-2.99.87a6.617 6.617 0 0 0-4.49 4.49l-.87 2.99c-.26.9-1.54.9-1.8 0l-.87-2.99a6.617 6.617 0 0 0-4.49-4.49l-2.99-.87c-.9-.26-.9-1.54 0-1.8l2.99-.87a6.617 6.617 0 0 0 4.49-4.49l.87-2.99c.26-.9 1.53-.9 1.8 0Z" fill="#fff"></path><path d="M93.28 168.4c-3.73.22-6.58.42-6.98.53 0 0-.18 13.68.12 14.78.1.35 2.96.61 7.05.75l-.19-16.06ZM242.67 159.82l4.48 4.64-10.67 12.79-4.15-5.54s5.7-9.29 10.34-11.89Z" fill="#000"></path><path d="m258.84 116.54-1.1.53s.86 3.87 1.59 4.15c.73.29 5.94 0 7.82-2.2 0 0 .81-.12-.73-4.36l-7.58 1.88Z" fill="#66CEE6"></path><path d="M125.939 114.34s-9.41 14.54-2.81 22.23c6.6 7.69 16.98-1.47 16.98-1.47l8.67 1.71s-1.71-9.53-12.22-12.22l-10.62-10.25Z" fill="#000"></path><path d="M259.139 115.3s-2.44 1.48-.92 2.19c1.37.64 5.74-.07 7.27-1.06 1.53-.99 1.47-2.52-.67-2.45-2.14.06-3.72.39-5.68 1.32Z" fill="#B3E7F3"></path><path d="M308.389 128.63s-.16-4.4-.81-5.29c-.65-.9-5.21-6.27-3.99-9.93 0 0 2.12-3.66 2.52-4.56.41-.9 2.2-16.04 2.93-17.35.73-1.3 2.2-1.22 2.93-.33.73.9-.08 10.75-.08 10.75s4.97-8.22 6.19-9.69c1.22-1.47 2.52-1.3 3.18 0 .65 1.3-4.64 10.83-4.64 10.83s2.04-1.38 3.18-.24c1.14 1.14.16 3.26.16 3.26s2.93-1.38 3.75.24c.82 1.62-1.55 4.48-1.55 4.48s2.44 4.64-.16 7.41c0 0-2.61 2.36-2.77 2.77-.16.41.98 6.84.98 6.84l-11.82.81Z" fill="#F8A9AF"></path><path d="M92.5 101.61c3.36-4.42 8.021-9.36 12.681-10.49 8.03-1.96 17.48-1.65 24.41 2.95 14.19 9.43 10.98 23.72 9.48 29.32-1.56 5.82-6.26 9.28-12.56 6.81-6.03-2.37-1.37-17.13-1.02-18.77l.03-.11-8.19-.89s-14.97-1.68-22.87-1.2l-3.7-.27c-.03.11-.06.21-.08.33l-.21-.01c.03-.13.21-3.68 2.03-7.67Z" fill="#004656"></path><path d="M135.35 104.49c1.68-.43 2.99.44 3.73 1.15-.57-1.56-1.33-3.11-2.35-4.63-2.52-.87-5.43-.68-6.81 1.34-1.95 2.85-2.09 7.89-.59 12.4 1.5 4.52 5.03 5.74 7.19 5.76 2.16.01 2.56-1.76 2.4-2.84-.16-1.08-.58-1.59-2.28-1.7-1.7-.11-4.15-1.49-4.51-4.77-.36-3.28.55-6.02 3.22-6.71Z" fill="#04CA17"></path><path d="M121.529 128.45c2.5 3.38 7.93 2.46 8.55 2.55-.15-.47-8.92-.68-4.35-19.62-.06-1.01.07-1.75.07-1.75l-4.64-.29c-.35 1.64-2.85 14.74.37 19.11Z" fill="#023138"></path><path d="M137.571 113.232c1.285-.218 2.092-1.776 1.803-3.48-.289-1.705-1.565-2.909-2.85-2.692-1.285.218-2.092 1.777-1.803 3.481.289 1.704 1.565 2.909 2.85 2.691ZM96.26 109.17c3.45-.08 7.73.14 11.53.41.27-4.27 1.6-10.31 6.46-14.27 2.97-2.42 6.57-3.84 9.6-3.96-5.12-1.74-10.99-1.71-16.32-.73-8.21 4.55-10.62 13.06-11.27 18.55Z" fill="#04CA17"></path><path d="M105.181 91.12c.88.26 1.83.57 2.85.92 11.7 4.01 20.62 12.07 20.62 12.07 7.81 5.92 5.52 14.62 1.31 13.25-4.21-1.37-3.38-5.72-3.38-5.72l-1.09-.2-34.81-2.14-.21-.01c.06-.27.72-14.71 14.71-18.17Z" fill="#02ACD4"></path><path d="m93.8 109.47 12.261.74c.16-4.3 3.04-10.7 8.2-14.89.19-.15.38-.3.57-.44-2.23-1.07-4.53-2.05-6.8-2.84-.64-.22-1.25-.42-1.83-.6-7.38 4.83-11.86 12.86-12.4 18.03Z" fill="#0089A9"></path><path d="m86.15 108.85 4.32.43c.05-.22 2.62-14.47 14.711-18.16-9.24-2.74-11.72-1.6-15.69 3.17-3.44 4.15-4.13 9.58-4.72 12.78-.16.9.48 1.73 1.38 1.78Z" fill="#B1E5F1"></path><path d="M301.259 76.93c-2.58-4.77-6.33-10.24-10.65-12.04-7.46-3.1-16.63-4.23-24.01-.84-15.12 6.96-14.18 21.24-13.58 26.87.62 5.86 4.64 9.91 11.1 8.47 6.18-1.37 3.91-16.32 3.82-17.96-.01-.07-.01-.11-.01-.11l8.04.38s14.7.64 22.26 2.3l3.61.3.03.33.21.02c-.02-.14.35-3.6-.82-7.72Z" fill="#004656"></path><path d="M259.48 73.23c-1.55-.67-2.95-.03-3.78.54.78-1.42 1.75-2.8 2.97-4.12 2.56-.46 5.34.16 6.37 2.32 1.46 3.05.83 7.93-1.31 12.06-2.13 4.13-5.72 4.78-7.81 4.47-2.09-.32-2.2-2.08-1.88-3.1.32-1.02.8-1.45 2.46-1.29 1.66.16 4.23-.82 5.08-3.93.86-3.1.37-5.88-2.1-6.95Z" fill="#04CA17"></path><path d="M269.191 98.44c-2.92 2.88-8.02 1.17-8.64 1.17.21-.43 8.72.69 7.17-18.28.21-.97.2-1.7.2-1.7l4.52.42c.09 1.64.53 14.67-3.25 18.39Z" fill="#023138"></path><path d="M296.491 83.65c-3.31-.6-7.48-1.04-11.19-1.35.38-4.17.01-10.19-4.08-14.74-2.51-2.78-5.76-4.7-8.67-5.28 5.21-.9 10.87.01 15.86 1.77 7.25 5.63 8.29 14.21 8.08 19.6Z" fill="#04CA17"></path><path d="M290.61 64.88c-.89.12-1.85.27-2.88.45-11.89 2.1-21.73 8.53-21.73 8.53-8.43 4.53-7.54 13.28-3.27 12.59 4.27-.68 4.13-5.01 4.13-5.01l1.08-.02 33.92 3.19.21.02c-.02-.25 1.53-14.29-11.46-19.75Z" fill="#02ACD4"></path><path d="M259.153 79.168c.535-1.597-.008-3.219-1.213-3.622-1.204-.403-2.614.564-3.149 2.162-.535 1.597.008 3.219 1.212 3.622 1.205.404 2.615-.564 3.15-2.162Z" fill="#04CA17"></path><path d="m298.83 84.31-11.95-1.13c.5-4.17-1.32-10.78-5.66-15.61-.16-.18-.32-.35-.49-.51 2.31-.7 4.68-1.3 6.99-1.71.65-.11 1.27-.22 1.86-.3 6.39 5.76 9.5 14.19 9.25 19.26Z" fill="#0089A9"></path><path d="m306.299 84.87-4.23-.24c-.01-.22-.34-14.36-11.45-19.75 9.33-1.25 11.55.22 14.66 5.43 2.7 4.52 2.54 9.87 2.63 13.05.02.89-.73 1.6-1.61 1.51Z" fill="#B1E5F1"></path><path d="M210.219 56.8c-.37 0 .89 7.33 6.6 16.61 2.93 4.76 3.91 9.04 4.52 15.02.61 5.99-15.02-9.28-15.02-9.28l-1.71-26.75 5.61 4.4Z" fill="#000"></path><path d="M132.001 56.97s-25.24 11.16-30.78 17.51c-5.54 6.35-5.21 13.84-2.77 17.59s30.29 13.68 49.35 18.24c0 0 1.47 12.7.16 18.4-1.3 5.7-5.7 15.47-3.58 26.38 1.25 6.42.65 14.59 2.44 10.1 0 0 57.17 7 67.59-1.14v-1.47s16.94 1.63 26.38-10.26c9.45-11.89 7.49-37.3 1.14-50.98-6.35-13.68-18.08-17.75-29.32-21.01-11.24-3.26-44.95-3.91-45.77-3.91-.82 0-13.52 2.77-13.52 2.77l-28.66.49 9.77-5.7c.02.01 4.25-6.02-2.43-17.01Z" fill="#00AA13"></path><path d="M113.35 184.27c2.34-.13 4.46-.31 6.18-.53l-7.85-16.35c-1.56.09-3.74.21-6.19.34l7.86 16.54Z" fill="#A5A5A5"></path><path d="M86.89 169.77c10.57-.18 21.119-.85 31.619-2.01 1.33-.15 1.34-2.25 0-2.1-10.5 1.16-21.05 1.83-31.62 2.01-1.35.02-1.36 2.12 0 2.1Z" fill="#000"></path><path d="M114.579 168.36h7.33c.57 0 1.05-.48 1.05-1.05 0-.57-.48-1.05-1.05-1.05h-7.33c-.57 0-1.05.48-1.05 1.05 0 .57.48 1.05 1.05 1.05Z" fill="#fff"></path><path d="M214.501 102.8c1.56 5.14 3.11 10.28 4.67 15.42.39 1.29 2.42.74 2.02-.56-1.56-5.14-3.11-10.28-4.67-15.42-.38-1.28-2.41-.73-2.02.56Z" fill="#000"></path><path fill-rule="evenodd" clip-rule="evenodd" d="M192.849 100.39c4.09 0 7.4 3.33 7.4 7.45 0 3.09-1.85 5.72-4.54 6.87-.17.07-.35.11-.54.11-.56 0-1.06-.34-1.28-.86-.3-.71.03-1.53.74-1.83 1.67-.7 2.84-2.36 2.84-4.29 0-2.57-2.07-4.66-4.62-4.66-2.55 0-4.62 2.08-4.62 4.66 0 1.93 1.17 3.59 2.84 4.29.51.22.85.73.85 1.29 0 .77-.62 1.4-1.39 1.4-.18 0-.37-.04-.54-.11-2.69-1.15-4.54-3.78-4.54-6.87.01-4.11 3.32-7.45 7.4-7.45Zm-2.77 7.45a2.78 2.78 0 0 1 2.77-2.79 2.78 2.78 0 0 1 2.77 2.79 2.78 2.78 0 0 1-2.77 2.79 2.78 2.78 0 0 1-2.77-2.79Z" fill="#fff"></path><path d="M180.59 87.62c-4.89 8.68-7.87 18.23-10.46 27.8-2.55 9.41-5.03 18.9-6.29 28.59-.69 5.35-.99 10.76-.49 16.14.12 1.33 2.23 1.35 2.1 0-.89-9.58.66-19.21 2.75-28.54 2.08-9.28 4.47-18.61 7.52-27.62 1.79-5.29 3.93-10.44 6.67-15.31.68-1.18-1.13-2.24-1.8-1.06Z" fill="#007A0E"></path><path d="M215.549 158.52s3.09-16.45 3.58-16.61c.49-.16-48.7-16.29-48.7-16.29l-24.75 11.12c-.83 3.07-1.59 6.54-1.81 10.26l26.72-13.72 44.96 25.24Z" fill="#000"></path><path d="M214.41 162.59s-2.85-.49-2.48-4.76c.37-4.28 3.54-6.6 7.57-8.31 4.03-1.71 5.99.49 6.11 3.05.12 2.57-.86 8.55-5.86 10.14 0 0-3.95.61-5.34-.12Z" fill="#000"></path><path d="M145.171 162.75s44.81 4.23 68.59.16c0 0 2.17 0 2.15 2.88-.01 1.61-1.21 2.97-2.8 3.24-5.69.96-21.56 3.12-42.35 1.7-26.22-1.79-26.55-.81-26.55-4.07.01-3.26.96-3.91.96-3.91Z" fill="#007A0E"></path><path d="M220.28 208.6c-1.66-12.29-3.49-24.56-4.73-36.91-.13-1.33-2.24-1.35-2.1 0 1.26 12.53 3.12 24.99 4.81 37.47.17 1.33 2.2.77 2.02-.56ZM143.731 169.27c-2.69 12.38-5.08 24.8-6.39 37.41-.14 1.34 1.96 1.33 2.1 0 1.29-12.43 3.66-24.65 6.31-36.85.3-1.32-1.73-1.88-2.02-.56ZM74.58 167.23c1.57-.52 3.53-.42 5.04.27 1.27.58 2.52 1.88 2.31 3.4-.06.44.11.89.58 1.01.39.11.95-.13 1.01-.58.3-2.16-.92-4.15-2.82-5.14-1.93-1.01-4.5-1.24-6.56-.56-1 .34-.57 1.93.44 1.6ZM239 96.21c-.75 4.4-4.11 12.93-18.15 20.81l1.22 19.91 22.85 7.55c4.45-13.06 2.2-31.99-2.98-43.13-.88-1.9-1.87-3.59-2.94-5.14Z" fill="#000"></path><path d="M147.84 110.63c.09.86.34 3.31.51 6.25 8.02-7.22 16.23-24.65 16.23-24.65l-4.4-6.03c-4.23 12.54-11.08 21.01-11.08 21.01l-1.26 3.42ZM206.761 84.9s.65 20.36 9.77 27.85l-7.49 1.95s-8.47-8.31-7-30.29l4.72.49Z" fill="#A5A5A5"></path><path d="m158.551 78.18-.61.03c-2.53.54-4.6.99-4.6.99l-28.66.49c-9.93 3.36-17.92-4.02-20.98-7.45-1.02.79-1.87 1.54-2.48 2.24-5.54 6.35-5.21 13.84-2.77 17.59 1.78 2.73 17.01 8.73 32.51 13.55 6.15-17.47 27.59-27.44 27.59-27.44Z" fill="#000"></path><path d="m128.86 77.25 5.59-3.26s4.23-6.03-2.44-17.02c0 0-2.64 1.17-6.38 2.95-1.55 4.22-3.56 11.65-.17 15.45 1.01 1.15 2.18 1.7 3.4 1.88Z" fill="#000"></path><path d="M163.911 58.08c2.46-6.63 2.93-11.16 3.24-15.2l-7.13-.43c-1.62 10.97 1.26 15.35 3.89 15.63Z" fill="#023138"></path><path d="M164.781 38.97s-5.13 24.8-12.7 41.65c-5.96 13.25 5.74 38.48 11.73 36.16 5.99-2.32 15.27-27.61 16.25-38.97.98-11.36-8.79-40.55-8.79-40.55l-6.49 1.71Z" fill="#000"></path><path d="m162.301 111.61 82.73.98.65 36.48-83.04.16-.34-37.62Z" fill="#FFD51C"></path><path d="M210.14 149.14v-7.84l-2.42 1.95-2.27-1.65-1.82 1.78-1.86-1.84-1.79 1.39-1.91-1.33v7.56l12.07-.02Z" fill="#F08800"></path><path d="m162.3 111.61-4.89 1.63.33 36.64 4.9-.65-.34-37.62Z" fill="#FFB31C"></path><path d="m157.74 149.88 4.9-.65 83.04-.16-4.72 1.55-82.9-.13-.32-.61Z" fill="#F08800"></path><path d="m208.979 150.57 1.16-1.43-6.16.01-5.91.01-1.04 1.39 11.95.02Z" fill="#F06400"></path><path d="M190.74 150.74s-3.36-1.77-4.46-.18 3.24 3.66 4.46 4.09c1.22.43 7.02 2.32 7.02 2.32l-7.02-6.23Z" fill="#000"></path><path d="M194.89 149.94s-4.34-1.83-5.44 0c-1.1 1.83 9.96 8.86 11.6 10.02 1.65 1.16 9.04 1.71 12.22.79 0 0 6.05 0 7.02-4.89 0 0 .12-1.16-.98-2.2 0 0 6.05-2.93 4.52-4.03-1.53-1.1-5.19-.67-10.63 1.1 0 0-2.93.92-4.46.79-1.53-.12-3.05-.37-7.7-2.02-4.62-1.63-6.39-.72-6.15.44Z" fill="#F8A9AF"></path><path d="m208 152.07 3.75 1.14c.41.13.92-.15 1.01-.58.1-.45-.13-.88-.58-1.01l-3.75-1.14c-.41-.13-.92.15-1.01.58-.09.44.14.87.58 1.01ZM195.669 151.76a30.37 30.37 0 0 0 5.53 3.81c.39.21.9.1 1.13-.3.22-.37.1-.92-.3-1.13-1.87-1-3.62-2.19-5.2-3.55-.34-.29-.84-.33-1.17 0-.28.31-.32.88.01 1.17Z" fill="#000"></path><path d="m323.62 140.38-16.54 6.7v4.03l16.62-6.43c-.01-1.41-.04-2.85-.08-4.3Z" fill="#A5A5A5"></path><path d="M124.23 128.38s2.14 2.08 3.85 2.5c0 0-8.49 14.17-18.75 11.97l2.14-1.4c-.01 0 10.25-4.33 12.76-13.07Z" fill="#004656"></path><path d="M125.131 143.73c-1.46 3.51-3.03 6.98-4.7 10.4-.25.51-.14 1.14.38 1.44.46.27 1.19.14 1.44-.38 1.75-3.58 3.38-7.22 4.91-10.9.22-.52-.24-1.15-.73-1.29-.62-.16-1.08.21-1.3.73ZM114.061 139.7c-2.73 1.14-5.66 1.99-8.61 2.21-2.64.2-5.41-.23-7.28-2.27-.98-1.07-2.57.53-1.59 1.59 2.1 2.28 5.23 3.08 8.24 2.96 3.37-.13 6.74-1.03 9.84-2.32.56-.24.95-.74.79-1.38-.15-.53-.83-1.02-1.39-.79ZM322.88 124.15l-15.19 2.77-.43 6.84 15.97-3.18c-.18-3.78-.35-6.43-.35-6.43Z" fill="#000"></path><path d="M305.87 127.08c.18 7.87.35 15.76-.16 23.62-.09 1.35 2.01 1.34 2.1 0 .51-7.86.34-15.75.16-23.62-.03-1.35-2.13-1.35-2.1 0Z" fill="#fff"></path><path d="M63.78 129.68c.6 1.75 1.19 3.42 1.77 4.91l12.32-13.32c-.72-1.24-1.54-2.7-2.41-4.27l-11.68 12.68Z" fill="#A5A5A5"></path><path d="M79.51 125.24c-.9.81-1.68 1.75-2.32 2.78-.29.47-.11 1.18.38 1.44.52.27 1.12.12 1.44-.38.21-.33.43-.66.67-.97-.05.07-.11.14-.16.21.45-.57.94-1.11 1.48-1.59.41-.37.4-1.12 0-1.48-.45-.41-1.06-.4-1.49-.01ZM105.279 119.22c-.5.73-1.9.88-2.36.9-.9.04-1.8-.01-2.69-.16-.48-.08-.96-.2-1.36-.48-.4-.29-.69-.78-.61-1.27.07-.46.42-.83.84-1.01.41-.19 1.03-.31 1.48-.37 1.32-.17 3.98-.06 4.69.84.32.39.34 1.08.01 1.55Z" fill="#fff"></path><path d="M102.641 119.83c-1.72.28-2.17-2.39-.44-2.68 1.72-.28 2.16 2.4.44 2.68Z" fill="#000"></path><path d="M118.1 118.98c-.46.75-1.86.97-2.31 1.01-.9.08-1.8.07-2.7-.04-.48-.06-.97-.15-1.38-.42-.41-.27-.72-.75-.67-1.24.04-.46.39-.84.79-1.05.4-.21 1.02-.36 1.46-.44 1.31-.23 3.97-.24 4.72.63.34.38.39 1.06.09 1.55Z" fill="#fff"></path><path d="M115.479 119.72c-1.71.36-2.27-2.29-.56-2.65 1.71-.37 2.27 2.28.56 2.65Z" fill="#000"></path><path d="M240.841 123.25h-13.93c-.56 0-1.02-.46-1.02-1.02v-6.03c0-.56.46-1.02 1.02-1.02h13.93c.56 0 1.02.46 1.02 1.02v6.03c0 .57-.46 1.02-1.02 1.02Z" fill="#FFB31C"></path><path d="m202.76 125.07 1.81-1.77 1.86 1.83 1.79-1.39 1.92 1.33v-12.9l-12.07-.14v13.34l2.41-1.95 2.28 1.65Z" fill="#F08800"></path><path d="m66.57 100.47-9.71 5.74s.55 2.12 1.44 5.32c2.64-1.43 8.21-4.4 11.01-5.89-1.61-3.02-2.74-5.17-2.74-5.17Z" fill="#000"></path><path d="M268.18 96.2s-1.04 2.57-4.03 3.6c0 0 .49 14.72 15.88 14.84l.67-.06s-2-1.34-3.09-1.83c-1.1-.49-7.11-1.65-9.43-16.55Z" fill="#004656"></path><path d="M276.68 114.54c5.65 1.75 12.1 3.23 17.2-.72.48-.37.39-1.2 0-1.59-.47-.48-1.11-.37-1.59 0-4.33 3.35-10.32 1.59-15.01.14-1.39-.43-1.98 1.74-.6 2.17ZM99.37 115.13c.05-.07.12-.12.18-.17.07-.06.19-.1-.11.08.04-.02.07-.05.11-.08.07-.05.14-.1.21-.14.19-.12.389-.24.599-.34.06-.03.13-.06.19-.09.23-.11-.24.09 0 0 .13-.05.27-.1.4-.14.14-.05.29-.09.44-.12.07-.02.14-.03.21-.04.03-.01.32-.04.15-.03-.17.02.08-.01.11-.01.09-.01.18-.01.27-.01.17 0 .34 0 .51.02.11.01.2.03.04 0 .1.02.2.03.29.06.19.04.37.1.55.16.06.02.23.09.09.03.1.05.21.1.31.15.21.11.42.24.62.38.49.33 1.27.11 1.54-.4.3-.57.12-1.18-.4-1.54a6.127 6.127 0 0 0-5.24-.82c-.61.19-1.22.45-1.76.8-.31.19-.67.41-.9.69-.37.46-.48 1.15 0 1.59.41.35 1.2.46 1.59-.03ZM112.401 114.72c.04-.04.27-.23.1-.1s.1-.06.16-.1c.1-.06.19-.11.29-.16.05-.02.1-.05.15-.07.18-.09.09.02-.02.01.07.01.26-.1.34-.12.13-.04.26-.08.4-.11.14-.04.28-.07.42-.09.04-.01.27-.04.09-.02-.18.02.1-.01.14-.01.3-.02.59-.03.89-.01l.26.03c-.15-.02-.13-.02 0 .01.16.03.32.07.48.11.15.04.29.09.43.15-.24-.09.02.01.07.04.08.04.17.09.25.13.14.08.28.17.41.26.26.18-.15-.14.09.07.08.07.15.14.23.21.43.41 1.17.45 1.59 0 .4-.44.45-1.16 0-1.59a6.08 6.08 0 0 0-4.7-1.67c-1.29.11-2.72.51-3.66 1.44-.42.42-.45 1.18 0 1.59.45.42 1.15.45 1.59 0ZM316.289 106.84c-.43-.68-1.04-.84-1.81-.73-.9.13-1.8.28-2.71.43l-5.53.87c-.44.07-.68.62-.58 1.01.12.47.58.65 1.01.58l4-.63c.67-.1 1.33-.21 2-.32.69-.11 1.42-.3 2.12-.33.05 0 .07-.01.09-.01.05.06.09.16.11.23.08.21.12.44.12.67-.01.43-.15.86-.44 1.18-.35.4-.87.61-1.36.79-.65.24-1.3.46-1.96.69-.63.22-.76.88-.36 1.38 1.27 1.59 2.24 4.11.66 5.85-.71.78.45 1.95 1.17 1.17 1.94-2.13 1.42-4.93.05-7.16 1.16-.37 2.37-.81 3.12-1.74.89-1.08 1.06-2.75.3-3.93Z" fill="#000"></path><path d="m315.15 103.71-1.52 2.21c-.12.17-.14.44-.08.64.05.19.2.4.38.49.19.1.42.15.64.08.21-.07.37-.19.49-.38l1.52-2.21c.12-.17.14-.44.08-.64-.05-.19-.2-.4-.38-.49a.837.837 0 0 0-.64-.08c-.21.07-.36.2-.49.38ZM147.431 103.99c-.55 9.05-.75 18.2-1.8 27.21-.73 6.22-2.67 12.24-2.88 18.53-.14 4.27.45 8.51 1.4 12.66.3 1.32 2.33.76 2.02-.56-1.55-6.77-1.65-13.37-.32-20.17.6-3.04 1.29-6.06 1.7-9.13.59-4.4.78-8.83 1.05-13.26.31-5.1.62-10.2.92-15.3.1-1.33-2-1.33-2.09.02Z" fill="#000"></path><path d="M154.31 162.24c-2.07.07-4.13 0-6.19-.23-1.93-.21-4.14-1.02-5.54.8-1.05 1.36-1.23 3.91-.28 5.37 1.11 1.7 3.13 1.98 5 2.09 1.35.07 1.35-2.03 0-2.1-1.07-.06-2.79-.09-3.31-1.26-.35-.78-.34-2.84.7-3.17.63-.2 1.57.13 2.2.22.81.11 1.63.2 2.45.27 1.66.14 3.32.17 4.98.11 1.34-.04 1.35-2.14-.01-2.1Z" fill="#000"></path><path d="m294.5 130.46-18.2-4.64c.98.12-1.1 45.81-1.71 46.91 0 0 14.66 1.83 17.35 3.3 2.69 1.47 2.2-12.58 1.22-19.3-.98-6.72 1.34-26.27 1.34-26.27Z" fill="#FFB31C"></path><path d="M252.089 128.68c1.07-.39 2.121-.85 3.131-1.37.38-.2.53-.77.3-1.13a.85.85 0 0 0-1.13-.3c-.47.24-.94.47-1.42.68-.06.03-.121.05-.181.08-.03.01-.069.03-.099.04.1-.04.129-.05.069-.03l-.36.15c-.25.1-.5.19-.75.29-.21.08-.379.19-.489.38-.1.18-.15.44-.08.64.12.39.579.73 1.009.57ZM250.959 125.05c1.37-.32 2.69-.88 3.86-1.65.36-.24.55-.74.3-1.13-.23-.36-.74-.55-1.13-.3-.55.36-1.13.67-1.73.94-.06.02-.04.02.05-.02-.04.02-.08.03-.12.05l-.24.09c-.15.06-.3.11-.46.16-.32.1-.64.19-.96.27-.42.1-.71.6-.58 1.01.13.44.56.68 1.01.58Z" fill="#C05000"></path><path d="M275.079 121.46s4.64-1.55 5.37.16c.73 1.71-1.06 2.2-1.06 2.2s3.26 1.22 1.63 2.93c0 0 3.42 1.87 1.55 3.66 0 0-.57.24-1.47.24 0 0 1.47 1.06 1.55 2.85.08 1.79-1.3 3.58-2.69 2.61-1.38-.98-1.63-2.36-1.63-2.36s-2.04 2.52-3.34-.41c0 0-.65-1.38.16-2.93 0 0-1.06 1.14-2.04-.49s-.24-2.69.81-3.66c0 0-.49-1.79-1.63-2.28-1.14-.49 2.79-2.52 2.79-2.52Z" fill="#772583"></path><path d="M281.6 126.15c-.41-.01-.82-.01-1.23-.04-.2-.01-.41-.03-.61-.05-.1-.01-.12-.01-.04-.01a5.706 5.706 0 0 1-.45-.09 4.416 4.416 0 0 1-.77-.23c-.04-.02-.05-.02-.06-.02l-.06-.03c-.16-.08-.32-.16-.47-.26-.08-.05-.15-.1-.22-.15.13.1-.1-.09-.13-.11-.32-.29-.86-.34-1.17 0-.17.18-.24.44-.22.69-.05.1-.07.21-.05.33.04.29.04.58.03.86 0 .07-.01.14-.02.21v.01c-.03.14-.05.28-.09.42-.04.14-.08.28-.13.41l-.06.15c.06-.22 0-.01-.03.05-.12.26-.27.51-.45.74-.12.16-.13.45-.08.64s.2.4.38.49c.27.15.54.12.78 0 .3.54.8.97 1.4 1.17-.59 1.28-.52 2.87.28 4.05.24.36.74.55 1.13.3.36-.23.55-.75.3-1.13a2.884 2.884 0 0 1-.25-.45v.01-.01c0-.01-.01-.02-.01-.03-.04-.08-.01-.04.01.01-.02-.06-.05-.12-.06-.17-.04-.14-.08-.28-.11-.42 0-.02-.01-.03-.01-.05-.01-.08-.01-.16-.02-.25 0-.14 0-.29.02-.43 0-.02.01-.05.01-.06.01-.07.03-.14.05-.21.03-.13.08-.26.13-.39a.3.3 0 0 1 .04-.08c.04-.07.08-.14.12-.22.08-.14.1-.3.09-.46.16-.05.32-.12.48-.2.58-.3 1.09-.88 1.22-1.53.12-.64-.07-1.24-.3-1.83.22.01.44.01.66.02.43.01.84-.38.83-.83-.06-.44-.4-.81-.86-.82Zm-2.48 7.31c0 .03 0 .03 0 0Zm-.01-.02c0-.02 0-.04-.01-.05.01.01.01.03.01.05Zm0-5.79c.13.32.26.65.38.98.03.08.06.16.08.25.01.05.05.15.06.21V129.24c-.01.02-.01.05-.02.07-.03.04-.07.13-.08.15-.01.01-.02.03-.04.04-.01.01-.09.09-.13.12-.02.02-.05.03-.07.05-.01.01-.1.05-.15.08l-.09.03c-.06.02-.12.03-.18.05-.02 0-.01 0-.02.01-.07 0-.14.01-.21.01h-.08c-.05-.02-.14-.03-.17-.04l-.1-.03c-.05-.03-.13-.07-.14-.08-.02-.01-.03-.02-.05-.03-.04-.03-.07-.07-.11-.1l-.03-.03c-.02-.05-.07-.1-.09-.14l-.03-.06c-.01-.05-.04-.1-.05-.15-.01-.03-.01-.05-.02-.08 0-.04-.01-.09-.01-.13v-.05c.02-.05.03-.12.04-.16.08-.25-.01-.53-.18-.74.07-.27.11-.54.14-.82.43.18.87.31 1.33.39.02.01.02.03.02.05Z" fill="#5F1E69"></path><path d="M279.299 134.11c0-.01 0-.02-.01-.02 0 .01.01.01.01.02ZM276.36 124.48c.16-.04.32-.07.48-.1.03 0 .06-.01.09-.01.09-.01.18-.01.26-.02.15-.01.31-.01.46 0 .07 0 .13.01.2.01.02 0 .08.01.13.01.3.03.6.11.89.21.08.03.17.06.25.09.03.01.08.03.1.03-.01 0-.02-.01-.05-.01.16.05.33.16.47.24.38.21.92.1 1.13-.3.21-.39.11-.9-.3-1.13-1-.57-2.14-.83-3.28-.79.2-.32.37-.66.49-1.03.13-.41-.15-.92-.58-1.01-.45-.1-.88.14-1.01.58-.03.09-.06.17-.09.26 0 .01 0 0-.01.01-.02.04-.04.08-.06.11-.05.09-.1.19-.16.27-.02.04-.05.07-.07.11 0 .01-.02.02-.03.04-.01.01-.07.09-.07.09-.03.03-.05.06-.08.1-.06.07-.13.14-.2.2-.04.04-.15.17-.21.19.08-.06.09-.07.04-.03-.02.01-.03.02-.05.04-.04.03-.09.06-.13.09-.08.05-.17.1-.26.15-.04.02-.08.04-.13.06-.01.01-.03.01-.04.02-.19.07-.39.13-.59.17 0 0-.04.01-.07.01-.03 0-.12.02-.12.02-.1.01-.21.01-.31.01-.11 0-.21-.01-.31-.01h-.02l-.17-.03c-.42-.09-.91.12-1.01.58-.09.41.12.92.58 1.01 1.05.21 2.16.06 3.09-.46.18.19.46.29.75.22Zm-1.84-1.51c-.02.01-.02.01 0 0Z" fill="#5F1E69"></path><path d="M318.881 103.09c1.14 1.12.12 2.85-.65 3.85-.57.73-1.17 1.44-1.75 2.15-.3.36-.58.75-.91 1.08-.16.16-.43.45-.69.4-1.03-.23-1.48 1.36-.44 1.59 1.22.27 2.1-.55 2.82-1.43.8-.98 1.63-1.95 2.4-2.96.67-.88 1.21-1.85 1.34-2.97.12-1.05-.19-2.13-.95-2.88-.76-.74-1.93.42-1.17 1.17Z" fill="#000"></path><path d="M320.919 105.94c.5-.15 1.07-.3 1.56-.09.41.17.52.52.48.91-.04.42-.31.86-.58 1.21-.4.53-.87 1.02-1.3 1.52-.41.47-.8.99-1.29 1.39-.35.29-.73.47-1.15.4-.25-.04-.44-.25-.48-.55-.07-.54.24-1.09.51-1.58.51-.93-.91-1.76-1.42-.83-.65 1.18-1.16 2.67-.2 3.84.87 1.06 2.49.94 3.52.19.54-.39.97-.88 1.41-1.38.46-.53.93-1.06 1.38-1.6.83-.99 1.57-2.26 1.11-3.59-.26-.76-.86-1.29-1.62-1.54-.77-.25-1.62-.12-2.38.11-1 .31-.57 1.9.45 1.59Z" fill="#000"></path><path d="M320.919 111.03c.66 1.84 1.52 4.09.65 6.01-.84 1.85-2.84 2.77-4.62 3.47-.41.16-.7.55-.58 1.01.11.4.6.74 1.01.58 2.19-.85 4.54-1.99 5.61-4.23 1.13-2.37.36-4.95-.48-7.28-.36-.99-1.96-.57-1.59.44ZM311.39 98.82c-.03 1.24-.11 2.49-.24 3.73-.05.43.41.84.82.82.49-.02.77-.36.83-.82.14-1.24.22-2.48.24-3.73.01-.43-.39-.84-.82-.83-.46.03-.82.37-.83.83Z" fill="#000"></path><path d="M43.92 91.43c-2.13.07-1.92 5.19-2.13 5.97-.21.78-10.24 8.82-10.52 10.17-.28 1.35-1.78 29.44-1.56 30.65.21 1.21 10.67 5.69 12.16 6.04 1.49.36 7.4-15.29 7.4-15.29l5.55-32.85c-.02 0-8.76-4.76-10.9-4.69Zm6.4 9.43c-.45-.04-5.29-1.67-5.7-2.85-.41-1.18.73-3.99.73-3.99l5.74 3.26c.01 0-.32 3.62-.77 3.58Z" fill="#FFB31C"></path><path d="m37.85 135.61 1.96 1.16-.7.38.27 1.08-2.54-.88 1.01-1.74ZM33.27 134.5l-.34 1.46-2.06-.69.77-.51-.58-.68 2.21.42Z" fill="#E8E8E8"></path><path d="m32.24 133.29 6.15 1.36-.5 2.52-5.64-2.02-.01-1.86ZM37.26 126.13s1.07 1.49.99 2.15c-.09.66.53 1.14.94.46.41-.68 1.48-.29 1.04-.91-.43-.62-1.04 0-1.47-.62-.43-.62-1.37-1.99-1.37-1.99l-.13.91Z" fill="#fff"></path><path d="M52.129 103.28s1.89-7.09 2.67-7.16c.78-.07 3.84 8.04 3.84 8.04l9.45 6.24c.87.57 1.39 1.53 1.4 2.57.05 6.4.19 29.23-.11 30.02-.36.92-26.88 1.99-28.02 1.21-1.14-.78.86-31.55.86-31.77 0-.21 9.91-9.15 9.91-9.15Z" fill="#F07600"></path><path d="M65.53 121.68c-.09-.16-.16-.17-.3-.05-.3.27-.59.56-.89.84l-1.56 1.5c-.07.07-.14.13-.23.18-.12.07-.24.05-.35-.06-.1-.1-.13-.22-.07-.34.03-.06.07-.13.12-.18.73-.86 1.46-1.71 2.19-2.57.22-.26.22-.28-.03-.52l-.12-.12c-.12-.12-.16-.12-.28-.01l-.59.5-2.05 1.75c-.06.05-.11.09-.17.13-.16.1-.29.08-.42-.06-.11-.13-.12-.26.01-.4.19-.21.39-.42.58-.62.62-.64 1.23-1.28 1.85-1.92.18-.18.17-.23-.05-.33-.12-.06-.24-.1-.37-.14h-.15c-.33.08-.6.27-.85.48l-.18.15c-.79.66-1.52 1.38-2.18 2.17-.37.44-.61.94-.64 1.53-.03.41.06.8.23 1.17.07.17.06.21-.07.34-.02.02-.05.05-.08.07-.75.72-1.51 1.43-2.26 2.15-.15.15-.31.29-.46.44l-1.17-1.11v.01l-1.6-1.51c-.15-.14-.16-.19-.08-.37.14-.33.23-.68.23-1.13 0-.27-.11-.71-.28-1.03-.36-.67-.85-1.21-1.46-1.66-.81-.6-1.74-.92-2.73-1.04-1.09-.12-1.79.65-1.99 1.36-.1.36-.06.73.01 1.09.28 1.48 1 2.68 2.25 3.54.8.55 1.64.69 2.55.3.23-.1.26-.09.43.09.64.66 1.27 1.33 1.91 1.99l.05.05.6.63c-1.54 1.47-3.09 2.93-4.63 4.4-.22.21-.44.42-.65.63-.13.12-.19.27-.13.45.23.63.64 1.08 1.31 1.26.09.02.18.02.25-.04.14-.12.29-.24.41-.38 1.58-1.66 3.15-3.32 4.73-4.98l.51.53c.01.04.06.08.12.16 1.21 1.29 2.42 2.58 3.64 3.86.23.24.46.47.7.7.1.1.24.15.46.15.06-.03.2-.06.32-.13.38-.23.66-.55.85-.95.14-.31.11-.5-.14-.74-.81-.77-1.62-1.54-2.43-2.3-.68-.64-1.36-1.29-2.04-1.94l-.72-.69c.88-.93 1.77-1.86 2.65-2.8.12-.12.22-.15.39-.09.71.26 1.4.19 2.04-.18.29-.17.56-.37.81-.59.64-.56 1.21-1.21 1.77-1.85.28-.32.52-.66.65-1.08v-.23c-.08-.16-.14-.31-.22-.46ZM289.62 118.95c-.14.31-.24.63-.23.98.01.36.11.65.25.97-.03-.07-.06-.13-.08-.2.03.08.07.16.08.25l-.03-.22c.01.04.01.08 0 .12l.03-.22c0 .03-.01.05-.02.08.03-.07.06-.13.08-.2-.06.12.08-.09.12-.12.11-.09.03-.03-.01-.01.07-.03.13-.06.2-.08-.26.09-.56.11-.83.15-.35.05-.67.13-.96.35-.32.24-.53.62-.5 1.04.04.47.32.95.82 1.05.42.09.91-.12 1.01-.58.09-.41-.12-.92-.58-1.01-.02 0-.04-.01-.05-.01.07.03.13.06.2.08-.1-.05.15.14.09.08-.05-.05.13.19.08.09.03.07.06.13.08.2-.02-.04-.02-.07-.03-.11l.03.22v-.12l-.03.22c.01-.03.01-.06.02-.09-.03.07-.06.13-.08.2.01-.02.02-.04.03-.05.05-.1-.12.14-.05.08.06-.06-.15.09-.07.06.03-.01.06-.03.09-.05-.07.03-.13.06-.2.08.42-.17.89-.13 1.32-.25.41-.12.72-.4.84-.82.11-.4-.05-.75-.2-1.11.03.07.06.13.08.2-.05-.11-.08-.22-.09-.34l.03.22c-.01-.1-.01-.21 0-.31l-.03.22c.02-.12.05-.23.09-.34-.03.07-.06.13-.08.2.01-.01.01-.03.02-.04.1-.21.15-.41.08-.64-.05-.19-.2-.4-.38-.49-.37-.22-.94-.15-1.14.27Z" fill="#FFB31C"></path><path d="M37.4 123.4c-.06.64.26 1.22.77 1.61.23.18.37.45.12.86-.59.95-1.46 1.59-2.04.59-.59-1-.69-.54-2.3-1.34-1.61-.8-3.37-3.81-1.81-5.8 1.56-1.99 4.42-1.92 5.09.25.39 1.32.27 2.8.17 3.83Z" fill="#C05000"></path><path d="M38.75 119.19c.41.38-.11 1.24-.37 1.65-.49.78-1.16 1.44-1.84 2.06-.76.71-1.55 1.39-2.36 2.04-.68.55-1.43 1.19-2.35 1.13-1.06-.07-1.06 1.58 0 1.65 1.3.08 2.37-.7 3.33-1.47.98-.78 1.94-1.61 2.85-2.47.83-.79 1.63-1.67 2.12-2.71.46-.97.66-2.24-.22-3.04-.78-.72-1.95.44-1.16 1.16Z" fill="#F07600"></path><path d="M37.21 110.77c1.5.78 3.1 1.36 4.76 1.71.42.09.91-.12 1.01-.58.09-.41-.12-.92-.58-1.01-.78-.16-1.55-.38-2.3-.64-.18-.07-.37-.13-.55-.2-.09-.04-.18-.07-.27-.11-.09-.04-.1-.04-.03-.01-.04-.02-.08-.03-.12-.05-.37-.16-.74-.34-1.1-.52-.38-.2-.91-.11-1.13.3-.19.36-.1.9.31 1.11ZM61.73 94.8c-.58-.84-1.16-1.68-1.84-2.45-.61-.69-1.33-1.44-2.24-1.71-.87-.26-1.87-.04-2.43.71-.53.73-.5 1.68-.18 2.48.37.92.98 1.75 1.5 2.59.26.43.61.87.8 1.33.14.34-.05.73-.1 1.08-.24 1.84.7 3.85 2.65 4.25 1.04.21 1.48-1.38.44-1.59-1.43-.29-1.61-1.76-1.35-2.97.16-.75-.04-1.33-.43-1.98-.4-.66-.81-1.33-1.22-1.99-.32-.52-.84-1.15-.88-1.79-.04-.7.59-.67 1.06-.39.57.34 1.04.92 1.45 1.42.48.58.9 1.21 1.33 1.83.61.89 2.04.06 1.44-.82Z" fill="#000"></path><path d="M48.43 90.27s-4.21 2.81-3.97 3.73c.24.92 1.59 3.18 2.57 4.4.98 1.22 1.53-.24 1.53-.24s1.28 1.77 2.32 1.53c1.04-.24.55-1.59.55-1.59l-1.1-2.14 3.85-2.32-5.75-3.37Z" fill="#F8A9AF"></path><path d="M49.98 96.04c.34.41.61.9.77 1.41.08.25.33.9.09 1.13-.12.12-.48.12-.52.18.11.11.14.12.08.03-.03-.05-.06-.1-.09-.16-.08-.14-.15-.28-.23-.41-.31-.57-.61-1.15-.9-1.74-.27-.54-.61-1.1-.78-1.68-.14-.48.33-.74.67-1.01.93-.75 1.98-1.38 3.06-1.89.4-.19.51-.77.3-1.13-.24-.41-.72-.49-1.13-.3-1.19.57-2.3 1.28-3.33 2.1-.51.41-1.03.87-1.2 1.53-.19.74.14 1.43.45 2.08.29.62.59 1.23.9 1.83.3.58.58 1.23.97 1.76.89 1.2 2.96.51 3.39-.79.22-.67.05-1.46-.17-2.11-.26-.75-.65-1.4-1.15-2-.29-.34-.87-.3-1.17 0-.35.34-.29.83-.01 1.17Z" fill="#000"></path><path d="M51.55 95.99c.71-.42 1.41-.84 2.12-1.26.18-.11.32-.29.38-.49.05-.2.03-.46-.08-.64-.24-.37-.73-.53-1.13-.3-.71.42-1.41.84-2.12 1.26-.18.11-.32.29-.38.49-.05.2-.03.46.08.64.24.38.73.53 1.13.3Z" fill="#000"></path><path d="M294.409 93.78c-.58.67-2.01.66-2.47.63-.91-.06-1.8-.22-2.68-.48-.47-.14-.94-.31-1.31-.64-.36-.33-.6-.86-.47-1.35.12-.45.52-.78.96-.92.43-.14 1.07-.19 1.53-.2 1.35-.01 4 .41 4.6 1.39.28.45.21 1.13-.16 1.57Z" fill="#fff"></path><path d="M290.721 93.87c-1.76.08-1.89-2.65-.13-2.74 1.76-.08 1.89 2.66.13 2.74ZM48.25 97.73c-.42.46-1.03.38-1.37-.12-.33-.47-.62-.99-.93-1.48-.28-.44-.59-.88-.82-1.35-.39-.79.22-1.49.72-2.08.62-.71 1.35-1.28 2.18-1.73.93-.5.1-1.93-.83-1.42a9.139 9.139 0 0 0-2.94 2.52c-.39.51-.77 1.07-.89 1.71-.13.7.06 1.35.39 1.96.34.61.73 1.19 1.1 1.78.38.61.72 1.3 1.32 1.73.97.7 2.43.54 3.23-.35.72-.79-.44-1.96-1.16-1.17Z" fill="#000"></path><path d="M44.94 96.18c-.22.02-.31-.01-.47-.19-.16-.19-.25-.42-.32-.65-.2-.61-.47-1.32-.37-1.97.2-1.24 1.35-2.03 2.34-2.63.91-.55.08-1.98-.83-1.42-1.56.94-3.08 2.27-3.17 4.22-.04.93.29 1.96.66 2.8.37.84 1.18 1.58 2.16 1.49.44-.04.83-.35.83-.82-.01-.42-.38-.87-.83-.83Z" fill="#000"></path><path d="M281.471 91.94c-.6.65-2.03.61-2.49.57-.91-.09-1.8-.27-2.67-.55-.47-.15-.93-.33-1.29-.68-.36-.34-.58-.88-.43-1.36.13-.45.54-.77.98-.89.44-.13 1.08-.17 1.53-.16 1.35.02 3.98.51 4.57 1.51.27.45.19 1.14-.2 1.56Z" fill="#fff"></path><path d="M277.72 91.89c-1.76.04-1.82-2.7-.06-2.74 1.76-.04 1.83 2.7.06 2.74ZM289.82 87.58c.09-.05.18-.1.28-.15.16-.08-.28.1-.09.04.05-.02.1-.04.15-.05.24-.08.48-.14.72-.18.02 0 .16-.04.18-.03-.2.03-.23.03-.11.02.02 0 .04 0 .06-.01.15-.02.3-.03.46-.03.29-.01.56.03.85.03.11 0-.28-.05-.03 0 .08.01.16.03.24.04.14.03.27.06.4.1l.2.06c.04.01.3.13.12.04s.09.04.12.06c.06.03.12.06.18.1.07.04.28.23.35.22-.14-.11-.16-.12-.06-.05.03.02.05.04.08.07.06.05.12.11.18.17.05.05.09.11.14.16.17.18-.13-.21 0 0 .1.15.19.29.27.45.26.53 1.05.72 1.54.4.54-.35.69-.98.4-1.54-.75-1.49-2.28-2.29-3.88-2.5-1.28-.17-2.76-.05-3.89.63-.5.3-.74 1.02-.4 1.54.33.51 1 .74 1.54.41ZM275.86 86.03c.19-.17-.12.07-.05.03.05-.02.09-.06.14-.09.05-.03.32-.13.34-.18-.02.06-.27.1-.03.02.06-.02.13-.05.19-.07.13-.04.27-.08.41-.11.16-.04.32-.07.48-.1.29-.05-.19.01.05-.01.08-.01.16-.02.24-.02.34-.03.68-.03 1.02-.01.18.01.36.03.54.05-.18-.02-.11-.02.03.01.08.01.16.03.24.05.16.03.32.08.47.12.08.02.15.05.23.08l.15.06c-.13-.06-.16-.07-.09-.04.15.08.3.14.45.23.07.04.13.08.19.12.07.05.2.2.01.01.11.11.22.2.32.31.1.11.1.14.01.01.05.09.11.17.16.25.31.52 1.02.71 1.54.4.53-.31.71-1.01.4-1.54-.94-1.61-2.82-2.25-4.59-2.37-1.5-.1-3.3.16-4.46 1.19-.45.4-.41 1.18 0 1.59.47.46 1.16.41 1.61.01Z" fill="#000"></path><path d="M167 40s-4 23-1 33 12.34 7.99 12.34 7.99l.24 3.99S191 86 197 79c0 0 7-33 1-39s-31 0-31 0Z" fill="#F8A9AF"></path><path d="m186.73 78.87-4.56 7.98-3.59-1.87-.24-3.99 8.39-2.12ZM175.469 56.62c-.41 1.15-.83 2.3-1.22 3.46-.38 1.14-.84 2.33-1.01 3.53-.19 1.36.32 2.87 1.82 3.19 1.44.3 2.73-.83 2.75-2.27.02-1.06-1.63-1.06-1.65 0-.01.68-.89.93-1.21.31-.39-.77.14-1.9.37-2.64.53-1.73 1.14-3.43 1.75-5.13.15-.42-.17-.9-.58-1.01-.46-.14-.87.14-1.02.56Z" fill="#000"></path><path d="M164.749 62.62s2.36-.18 5.36-1.66c2.35-1.16 4.64-1.71 7.17-1.06 4.29 1.11 7.41 1.87 10.64 1.53 3.23-.34 8.05-6.26 9.07-5.28 2.24 2.17-5.11 5.73-5.96 8.33-.85 2.61.23 6 3.06 4.53 2.83-1.47 5.89-6.68 5.89-6.68s.96.62-.17 3-6.29 11.27-14.44 14.1c-8.15 2.83-15.8 2.89-19.2-4.47 0 .01-1.99-4.58-1.42-12.34ZM177.691 81.97s-3.58.33-3.66 5.37c-.08 5.04 3.42 4.8 5.46 4.72 2.04-.08 14.09-1.79 17.83-9.04l-1.3-5.13s-7.98 6.03-17.43 5.62l-.16-1.79-.74.25Z" fill="#007A0E"></path><path d="m121.42 81.85 2.32-1.71c-8.12-.48-14.41-7.39-16.67-10.25-1.89 1.22-3.52 2.4-4.73 3.48 5.06 8.67 19.08 8.48 19.08 8.48Z" fill="#A5A5A5"></path><path d="m238.661 63.95.71 2.43a5.347 5.347 0 0 0 3.64 3.64l2.43.71c.73.21.73 1.25 0 1.46l-2.43.71a5.347 5.347 0 0 0-3.64 3.64l-.71 2.43c-.21.73-1.25.73-1.46 0l-.71-2.43a5.347 5.347 0 0 0-3.64-3.64l-2.43-.71c-.73-.21-.73-1.25 0-1.46l2.43-.71a5.347 5.347 0 0 0 3.64-3.64l.71-2.43c.22-.73 1.25-.73 1.46 0Z" fill="#fff"></path><path d="M202.28 47.28s-11.6 15.02-8.31 31.76c3.29 16.74 18.44 6.23 20.4 1.83 1.96-4.4-8.18-20.03-9.41-29.68-1.21-9.65-2.68-3.91-2.68-3.91Z" fill="#000"></path><path d="M162.23 34.14c3.78-4.97 9.02-10.53 14.26-11.81 9.04-2.2 19.67-1.86 27.46 3.32 15.96 10.61 12.35 26.69 10.67 32.99-1.75 6.55-7.05 10.45-14.13 7.66-6.79-2.66-1.55-19.27-1.15-21.12l.03-.12-9.21-1s-16.85-1.89-25.74-1.35l-4.16-.3c-.03.12-.06.24-.09.37l-.24-.01c.05-.14.25-4.14 2.3-8.63Z" fill="#004656"></path><path d="M210.44 37.38c1.89-.49 3.36.5 4.2 1.29-.64-1.75-1.5-3.5-2.65-5.21-2.83-.98-6.11-.77-7.67 1.51-2.2 3.21-2.35 8.87-.66 13.95s5.66 6.46 8.09 6.48c2.43.01 2.88-1.98 2.7-3.19-.18-1.22-.65-1.79-2.57-1.91-1.92-.12-4.67-1.68-5.08-5.37-.41-3.69.64-6.78 3.64-7.55Z" fill="#04CA17"></path><path d="M194.9 64.33c2.81 3.8 8.92 2.76 9.62 2.87-.17-.53-10.04-.77-4.9-22.08-.07-1.14.07-1.97.07-1.97l-5.22-.32c-.39 1.85-3.21 16.59.43 21.5Z" fill="#023138"></path><path d="M196.91 63.16s1.89 2.75 4.46 3.42c0 0-8.49 19.54-24.86 15.27l2.32-.92s14.59-1.22 18.08-17.77Z" fill="#004656"></path><path d="M167.431 80.5c6.35 4.04 14.14 1.76 20.49-.88 1.32-.55.74-2.73-.6-2.17-5.77 2.4-12.94 4.81-18.76 1.11-1.22-.79-2.35 1.16-1.13 1.94ZM132.089 73.47c-2.88 1.67-5.75 3.34-8.63 5.01-2.7 1.57-5.54 3.03-8.03 4.93-1.06.81-.01 2.63 1.06 1.81 2.49-1.9 5.32-3.36 8.03-4.93 2.88-1.67 5.75-3.34 8.63-5.01 1.17-.68.11-2.49-1.06-1.81Z" fill="#000"></path><path d="M120.721 80.07c-2.33 1.3-4.31 3.19-5.72 5.45-.29.47-.11 1.18.38 1.44.52.27 1.13.12 1.44-.38.16-.26.33-.51.5-.76.09-.13.19-.26.28-.38-.09.12-.04.05.02-.03.04-.06.09-.11.14-.17.38-.47.8-.91 1.24-1.33.21-.2.42-.39.65-.58.12-.1.25-.2.37-.3.1-.08-.13.1.03-.02.06-.04.12-.09.17-.13.5-.37 1.03-.7 1.57-1 .48-.27.68-.97.38-1.44-.33-.48-.94-.66-1.45-.37ZM77.31 53.38l1.04 3.56a7.869 7.869 0 0 0 5.34 5.34l3.56 1.04c1.07.31 1.07 1.83 0 2.15l-3.56 1.04a7.869 7.869 0 0 0-5.34 5.34l-1.04 3.56c-.31 1.07-1.83 1.07-2.15 0l-1.04-3.56a7.869 7.869 0 0 0-5.34-5.34l-3.56-1.04c-1.07-.31-1.07-1.83 0-2.15l3.56-1.04a7.869 7.869 0 0 0 5.34-5.34l1.04-3.56c.32-1.08 1.84-1.08 2.15 0Z" fill="#fff"></path><path d="M212.944 47.217c1.443-.244 2.349-1.996 2.024-3.913-.325-1.917-1.758-3.272-3.201-3.027-1.443.244-2.349 1.996-2.024 3.913.325 1.917 1.758 3.272 3.201 3.027ZM166.461 42.65c3.88-.09 8.7.15 12.98.46.31-4.81 1.8-11.6 7.27-16.05 3.35-2.72 7.4-4.32 10.8-4.46-5.76-1.95-12.37-1.92-18.37-.82-9.24 5.11-11.95 14.69-12.68 20.87Z" fill="#04CA17"></path><path d="M176.499 22.34c.99.29 2.05.64 3.2 1.03 13.16 4.51 23.2 13.58 23.2 13.58 8.79 6.66 6.22 16.45 1.48 14.91-4.74-1.54-3.81-6.44-3.81-6.44l-1.23-.22-39.16-2.41-.24-.01c.07-.3.81-16.55 16.56-20.44Z" fill="#02ACD4"></path><path d="m163.689 42.98 13.8.84c.18-4.83 3.42-12.03 9.22-16.76.21-.17.43-.34.65-.5-2.51-1.21-5.1-2.31-7.65-3.19-.72-.25-1.4-.48-2.06-.68-8.31 5.44-13.35 14.48-13.96 20.29Z" fill="#0089A9"></path><path d="M131.999 56.97s13.14-7.11 18.62-8.8c5.24-1.61 9.54-4.05 17.21-4.58.92-.06 1.83.47 2.09 1.35.23.81.1 2.77-1.92 3.62l-2.53.5s2.4 2.24-1.16 3.63c-3.56 1.39-4.94 1.87-4.94 1.87s1.99 1.55.24 2.77c-1.33.93-4.04 2.35-5.73 4.1-1.69 1.75-6.39 6.63-13.56 6.09 0 0-1.58-.76-3.39-1.55l-5.99 3.42s-1.29-8.14 1.06-12.42Z" fill="#F8A9AF"></path><path d="M167.95 69.62c1.85 2.51 4.84 4.08 7.99 3.88 3.25-.2 6.06-2.07 7.95-4.65.34-.46.07-1.17-.38-1.44-.53-.32-1.1-.08-1.44.38-1.42 1.94-3.68 3.45-6.13 3.61-2.37.15-4.76-.92-6.18-2.84-.34-.46-.91-.68-1.44-.38-.45.26-.71.99-.37 1.44Z" fill="#00660C"></path><path d="M152.44 56.4c3.22-.83 6.49-1.47 9.73-2.19 1.08-.24 2.18-.44 3.21-.86 1.86-.75 3.5-2.52 2.49-4.61-.46-.96-1.89-.12-1.42.83.7 1.45-1.64 2.3-2.66 2.57-1.07.28-2.15.5-3.23.73-2.86.62-5.73 1.2-8.56 1.93-1.02.27-.59 1.86.44 1.6Z" fill="#000"></path><path d="M153.27 49.11c1.58-.3 3.17-.59 4.76-.84.68-.11 1.36-.22 2.05-.31 1.04-.15 1.13.72.71 1.45-.65 1.12-2.56 1.26-3.71 1.49-1.61.32-3.24.5-4.89.56-.37.01-.69.25-.8.61-1.04 3.58-4.65 6.35-8.22 7.37-1.02.29-.59 1.88.44 1.59 4.09-1.17 8.14-4.27 9.37-8.52-.27.2-.53.4-.8.61 2.24-.09 4.48-.38 6.66-.92 1.73-.42 3.42-1.12 3.76-3.08.13-.76 0-1.65-.52-2.25-.6-.7-1.46-.64-2.29-.52-2.34.33-4.66.74-6.98 1.18-1.02.19-.58 1.78.46 1.58Z" fill="#000"></path><path d="M159.25 54.95c.45 2.41-2.94 3.35-4.52 4.27-1.91 1.11-3.44 2.71-5.14 4.1-1.9 1.55-4.11 2.64-6.58 2.9-2.15.23-5.76-.03-6.01-2.83-.1-1.05-1.75-1.06-1.65 0 .25 2.77 2.65 4.23 5.23 4.49 3.05.31 6.22-.57 8.74-2.3 2.51-1.73 4.48-4.1 7.26-5.46 2.27-1.12 4.81-2.66 4.26-5.6-.19-1.05-1.78-.61-1.59.43Z" fill="#000"></path><path d="M175.361 54.68c-.59.81-2.21.94-2.73.96-1.03.02-2.06-.07-3.08-.28-.54-.11-1.09-.26-1.54-.6-.45-.34-.76-.91-.66-1.48.09-.53.51-.93.99-1.13.48-.2 1.19-.32 1.71-.37 1.52-.15 4.56.06 5.34 1.12.36.47.36 1.25-.03 1.78Z" fill="#fff"></path><path d="M172.309 55.3c-1.98.27-2.4-2.81-.42-3.08s2.4 2.81.42 3.08Z" fill="#000"></path><path d="M190.06 54.84c-.55.84-2.16 1.04-2.69 1.08-1.03.07-2.06.02-3.09-.14-.55-.08-1.11-.21-1.57-.53-.46-.32-.8-.88-.73-1.45.07-.53.47-.95.94-1.18.47-.22 1.18-.38 1.69-.45 1.51-.22 4.56-.14 5.39.88.38.46.42 1.24.06 1.79Z" fill="#fff"></path><path d="M187.029 55.59c-1.97.36-2.53-2.7-.55-3.06 1.97-.35 2.52 2.7.55 3.06ZM183.049 49.57c2.2-1.35 5.02-1.97 6.87-.13 1.03 1.02 2.62-.57 1.59-1.59-1.2-1.19-2.86-1.81-4.55-1.82-1.8-.01-3.53.67-5.05 1.6-.52.32-.71 1.01-.4 1.54.3.51 1.02.71 1.54.4ZM163.38 44.07c.09.23.18.46.24.7l.09.38.03.19a5.092 5.092 0 0 1 .02.4c0 .06 0 .13-.01.19 0 .03-.02.21 0 .05-.02.11-.04.23-.07.34l-.06.18c-.04.15.04-.07 0 .01-.04.09-.09.17-.14.26-.03.05-.06.09-.09.14-.06.1.12-.14-.01.01-.06.07-.13.14-.2.21-.04.04-.08.07-.12.11.08-.07.06-.05-.01.01-.08.05-.16.1-.25.15-.17.1.1-.03 0 .01a.88.88 0 0 1-.15.05c-.05.01-.1.02-.15.04-.1.03.2-.01 0 0-.11.01-.21 0-.32 0-.43-.04-.84.41-.82.83.02.48.36.78.82.83 1.17.1 2.32-.69 2.82-1.72.58-1.19.45-2.57-.05-3.77-.16-.4-.55-.73-1.01-.58-.36.09-.74.56-.56.98Z" fill="#000"></path><path d="M165.001 45.02c.55-.11 1.1-.26 1.66-.33.12-.02.41-.03.59-.01-.06-.01-.03 0 .07.02.06.02.12.03.19.06-.07-.03.14.1.03.01.03.03.21.24.13.12.02.03.14.29.09.15.03.08.04.15.06.23.02.1.02.11 0 .02 0 .05.01.11.01.16s0 .11-.01.16c.02-.08.01-.07 0 .03l-.06.24c-.03.09-.04.1-.01.03-.02.05-.05.1-.07.15-.04.08-.12.19-.16.24-.53.67-1.51 1.07-2.35 1.37-1.08.4-2.19.68-3.3.95-.43.1-.69.6-.58 1.01.12.44.58.68 1.01.58 1.04-.25 2.08-.51 3.09-.87.99-.35 1.98-.75 2.8-1.41.75-.6 1.27-1.47 1.29-2.45.02-1-.51-1.93-1.45-2.3-1.09-.44-2.37 0-3.47.22-.44.09-.69.61-.58 1.01.13.49.59.7 1.02.61Z" fill="#000"></path><path d="M176.289 47.73c-2.51-2.33-6.86-3-9.49-.53-.44.42-.42 1.17 0 1.59.44.44 1.15.42 1.59 0 .81-.76 1.92-1.02 3.08-.89 1.12.12 2.42.67 3.23 1.42.45.41 1.15.44 1.59 0 .42-.42.45-1.18 0-1.59Z" fill="#000"></path><path d="m155.09 42.29 4.86.48c.06-.25 2.94-16.29 16.55-20.44-10.4-3.08-13.19-1.81-17.65 3.57-3.87 4.67-4.65 10.78-5.31 14.38-.19 1.01.53 1.95 1.55 2.01Z" fill="#B1E5F1"></path></g><defs><clipPath id="welcome_screen_main_page_svg__a"><path fill="#fff" d="M0 0h360v240H0z"></path></clipPath></defs></svg>