<svg viewBox="0 0 100 100" fill="none" xmlns="http://www.w3.org/2000/svg" width="100" height="100"><path fill-rule="evenodd" clip-rule="evenodd" d="M100 50c0 27.62-22.39 50-50 50S0 77.62 0 50 22.39 0 50 0s50 22.38 50 50Z" fill="#fff"></path><path fill-rule="evenodd" clip-rule="evenodd" d="M47.85 47.04c-.22 5.76-3.21 10.69-7.53 13.39-2.08 1.3-3.55 3.49-3.67 6.09l-.38 8.54c-.1 2.31-1.86 4.12-3.98 4.12-2.13 0-3.88-1.82-3.98-4.13l-.38-8.84c-.11-2.59-1.54-4.82-3.58-6.15-4.49-2.93-7.48-8.13-7.64-14.25-.15-5.73.32-11.81 1.21-17.55.33-2.12 2.15-3.58 4.12-3.18 1.94.35 3.25 2.36 2.92 4.47-.65 4.22-1.06 7.08-1.1 12.25-.01 1.47 1.08 2.66 2.43 2.66 1.34 0 2.46-1.18 2.46-2.64l-.02-15c0-2.36 1.94-4.23 4.17-3.83 1.76.31 2.97 2.11 2.97 4.04l.02 14.79c0 1.46 1.08 2.64 2.42 2.64 1.35 0 2.43-1.19 2.43-2.65-.02-5.17-.44-8.03-1.1-12.25-.33-2.11.98-4.12 2.93-4.47 1.91-.39 3.79 1.06 4.11 3.18.96 6.13 1.41 12.63 1.17 18.77Zm20.9-24.12c9.72 0 14.58 14.59 14.58 24.22 0 5.21-2.84 9.7-6.74 12.36-1.87 1.27-3.17 3.29-3.28 5.63l-.46 9.92c-.11 2.3-1.91 4.11-4.1 4.12-2.19-.01-3.99-1.81-4.1-4.12l-.46-9.92c-.11-2.34-1.41-4.36-3.28-5.63-3.9-2.66-6.74-7.15-6.74-12.36 0-9.64 4.86-24.22 14.58-24.22Z" fill="#E52535"></path></svg>